<svg width="20" height="20" viewBox="0 0 20 20" fill="none" xmlns="http://www.w3.org/2000/svg">
<path d="M7.49996 18.3332H12.5C16.6666 18.3332 18.3333 16.6665 18.3333 12.4998V7.49984C18.3333 3.33317 16.6666 1.6665 12.5 1.6665H7.49996C3.33329 1.6665 1.66663 3.33317 1.66663 7.49984V12.4998C1.66663 16.6665 3.33329 18.3332 7.49996 18.3332Z" stroke="#F0F2F5" stroke-width="1.5" stroke-linecap="round" stroke-linejoin="round"/>
<path d="M14.1667 2.0332V10.3499C14.1667 11.9915 12.9917 12.6332 11.55 11.7665L10.45 11.1082C10.2 10.9582 9.80004 10.9582 9.55004 11.1082L8.45004 11.7665C7.00837 12.6249 5.83337 11.9915 5.83337 10.3499V2.0332" stroke="#F0F2F5" stroke-width="1.5" stroke-linecap="round" stroke-linejoin="round"/>
<path d="M7.49996 18.3332H12.5C16.6666 18.3332 18.3333 16.6665 18.3333 12.4998V7.49984C18.3333 3.33317 16.6666 1.6665 12.5 1.6665H7.49996C3.33329 1.6665 1.66663 3.33317 1.66663 7.49984V12.4998C1.66663 16.6665 3.33329 18.3332 7.49996 18.3332Z" stroke="#F0F2F5" stroke-width="1.5" stroke-linecap="round" stroke-linejoin="round"/>
<path d="M14.1667 2.0332V10.3499C14.1667 11.9915 12.9917 12.6332 11.55 11.7665L10.45 11.1082C10.2 10.9582 9.80004 10.9582 9.55004 11.1082L8.45004 11.7665C7.00837 12.6249 5.83337 11.9915 5.83337 10.3499V2.0332" stroke="#F0F2F5" stroke-width="1.5" stroke-linecap="round" stroke-linejoin="round"/>
</svg>
