<svg width="20" height="20" viewBox="0 0 20 20" fill="none" xmlns="http://www.w3.org/2000/svg">
<path d="M17.3835 6.97504L11.6085 2.35837C10.7168 1.6417 9.27518 1.6417 8.39185 2.35004L2.61685 6.97504C1.96685 7.4917 1.55018 8.58337 1.69185 9.40004L2.80018 16.0334C3.00018 17.2167 4.13351 18.175 5.33351 18.175H14.6668C15.8585 18.175 17.0002 17.2084 17.2002 16.0334L18.3085 9.40004C18.4418 8.58337 18.0252 7.4917 17.3835 6.97504ZM10.0002 12.9167C8.85018 12.9167 7.91685 11.9834 7.91685 10.8334C7.91685 9.68337 8.85018 8.75004 10.0002 8.75004C11.1502 8.75004 12.0835 9.68337 12.0835 10.8334C12.0835 11.9834 11.1502 12.9167 10.0002 12.9167Z" fill="white"/>
</svg>
