<svg width="272" height="56" viewBox="0 0 272 56" fill="none" xmlns="http://www.w3.org/2000/svg">
<path d="M68.7188 12C69.2547 12 69.6893 12.4363 69.6895 12.9746V20.4912H67.748V15.0693L40.4805 44.0957H24.0303V13.9502H24V12H68.7188ZM28.3672 42.3057H28.5605L35.1719 13.9502H31.9277L28.3672 42.3057ZM30.6162 42.3057H30.8369L40.9453 13.9502H37.2285L30.6162 42.3057ZM32.8936 42.3057H33.1299L46.9893 13.9502H43.002L32.8936 42.3057ZM35.1865 42.3057H35.415L52.8984 13.9502H49.0459L35.1865 42.3057ZM37.4717 42.3057H37.7285L59.2803 13.9502H54.9551L37.4717 42.3057ZM39.7842 42.3057H40.1055L66.7441 13.9502H61.3369L39.7842 42.3057ZM124.734 28.6992C124.445 28.7173 124.228 28.7395 124.083 28.7666C123.703 28.848 123.514 29.0339 123.514 29.3232L123.527 32.917V34.002C123.536 34.4991 123.54 34.9331 123.54 35.3037C123.54 35.6653 123.585 35.9549 123.676 36.1719C123.766 36.3888 123.912 36.61 124.11 36.8359C124.318 37.0529 124.621 37.2343 125.019 37.3789C125.416 37.5145 125.859 37.582 126.348 37.582C126.836 37.582 127.229 37.532 127.527 37.4326C127.826 37.3242 128.065 37.1797 128.246 36.999C128.436 36.8092 128.577 36.5334 128.667 36.1719C128.83 35.5571 128.911 34.6255 128.911 33.3779L128.884 29.3232C128.884 28.9978 128.477 28.7989 127.663 28.7266V28.1973H130.864V28.6855C130.168 28.7669 129.806 28.9658 129.779 29.2822L129.766 29.5264C129.748 29.7796 129.72 30.6705 129.684 32.1982C129.647 33.726 129.63 34.7206 129.63 35.1816C129.63 35.6336 129.548 36.0722 129.386 36.4971C129.223 36.922 129.015 37.2569 128.762 37.501C128.518 37.7359 128.201 37.9257 127.812 38.0703C127.424 38.2059 127.048 38.292 126.687 38.3281C126.325 38.3733 125.891 38.3955 125.385 38.3955C124.888 38.3955 124.431 38.3141 124.015 38.1514C123.599 37.9887 123.279 37.7942 123.053 37.5684C122.827 37.3333 122.636 37.0668 122.482 36.7686C122.247 36.2804 122.13 35.7919 122.13 35.3037C122.112 31.4612 122.09 29.4447 122.062 29.2549C122.044 29.0651 121.968 28.9337 121.832 28.8613C121.696 28.78 121.416 28.7263 120.991 28.6992V28.1973H124.734V28.6992ZM113.516 28.1162C114.121 28.1162 114.646 28.3374 115.089 28.7803C115.541 29.2232 115.768 29.7747 115.768 30.4346C115.768 31.0855 115.641 31.5832 115.388 31.9268C115.135 32.2703 114.709 32.6366 114.112 33.0254C115.061 34.8876 115.866 36.3429 116.526 37.3916L117.272 37.7178V38.2061C116.459 38.2061 115.803 38.2236 115.306 38.2598L112.933 33.3643H112.553C112.002 33.3642 111.554 33.3049 111.211 33.1875C111.184 35.0952 111.17 36.393 111.17 37.0801C111.17 37.3603 111.364 37.5453 111.753 37.6357C111.898 37.6629 112.11 37.686 112.391 37.7041V38.2061H108.634V37.7041C108.905 37.686 109.113 37.6629 109.258 37.6357C109.411 37.6086 109.547 37.5502 109.664 37.46C109.791 37.3696 109.854 37.2428 109.854 37.0801C109.854 33.9519 109.823 31.3387 109.76 29.2412C109.751 29.0424 109.678 28.9119 109.542 28.8486C109.415 28.7763 109.176 28.731 108.823 28.7129L108.634 28.6992V28.1973C109.14 28.2334 109.764 28.251 110.505 28.251C111.255 28.251 111.88 28.2288 112.377 28.1836C112.883 28.1384 113.173 28.1162 113.245 28.1162H113.516ZM64.4902 28.6992L64.3008 28.7129C64.0477 28.731 63.8534 28.7485 63.7178 28.7666C63.3653 28.8299 63.1886 28.9882 63.1885 29.2412C63.1252 31.0494 63.0938 33.6625 63.0938 37.0801C63.0938 37.4327 63.5368 37.6094 64.4229 37.6094H64.708C65.6752 37.6094 66.2221 37.5548 66.3486 37.4463C66.5746 37.2474 66.805 36.6959 67.04 35.792L67.2305 35.0596H67.7314C67.7043 35.2947 67.6775 35.8416 67.6504 36.7002C67.6233 37.5591 67.6094 38.0614 67.6094 38.2061H60.5576V37.7041C60.8469 37.686 61.069 37.6629 61.2227 37.6357C61.5931 37.5543 61.7783 37.3693 61.7783 37.0801C61.7783 33.8886 61.7469 31.2755 61.6836 29.2412C61.6745 29.0336 61.6021 28.8983 61.4668 28.835C61.3403 28.7717 61.1004 28.731 60.748 28.7129L60.5576 28.6992V28.1973H64.4902V28.6992ZM73.2871 28.1289C75.6004 33.8489 76.7937 36.7832 76.8672 36.9307C76.9485 37.0751 77.0208 37.1928 77.084 37.2832C77.1562 37.3645 77.2694 37.4507 77.4229 37.541C77.5765 37.6314 77.7579 37.6907 77.9658 37.7178V38.2061H74.0869V37.7441C74.8916 37.6809 75.2939 37.482 75.2939 37.1475C75.2938 36.9034 75.1994 36.5645 75.0098 36.1309L74.752 35.5342C74.6435 35.2901 74.5482 35.0551 74.4668 34.8291H70.5479C70.3851 35.1998 70.2038 35.6475 70.0049 36.1719C69.8061 36.6869 69.707 36.9897 69.707 37.0801C69.707 37.4056 70.114 37.6044 70.9277 37.6768V38.2061H67.7266V37.7178C68.0249 37.6907 68.2469 37.6268 68.3916 37.5273C68.5361 37.4188 68.6899 37.2197 68.8525 36.9307C69.0153 36.6323 69.2457 36.1076 69.5439 35.3574L72.3652 28.3057C72.4287 28.2605 72.5732 28.2197 72.7988 28.1836C73.0339 28.1474 73.1967 28.1289 73.2871 28.1289ZM80.6826 28.6992C80.2125 28.7354 79.8998 28.7853 79.7461 28.8486C79.6018 28.903 79.5293 29.0206 79.5293 29.2012C79.5297 29.3742 79.7785 30.4456 80.2754 32.415C80.7725 34.3762 81.0982 35.5513 81.252 35.9404C81.5141 35.2803 81.9305 34.0285 82.5 32.1846C83.0784 30.3409 83.367 29.3372 83.3672 29.1738C83.3672 29.002 83.2904 28.8892 83.1367 28.835C82.983 28.7717 82.7165 28.7263 82.3369 28.6992V28.1973H86.0938V28.6992C85.479 28.7354 85.1709 28.8843 85.1709 29.1465C85.1709 29.2188 85.2755 29.6804 85.4834 30.5303C86.1433 33.1607 86.6679 34.964 87.0566 35.9404C87.4454 34.7742 87.8561 33.4179 88.29 31.8721C88.7239 30.3174 88.9413 29.4542 88.9414 29.2822C88.9414 29.1014 88.8554 28.9747 88.6836 28.9023C88.5208 28.821 88.2312 28.7627 87.8154 28.7266V28.1973H94.4609V28.6992C94.018 28.7354 93.7191 28.7853 93.5654 28.8486C93.4121 28.9119 93.335 29.0111 93.335 29.1465C93.335 29.3544 94.0176 30.5301 95.3828 32.6729C96.8918 30.5132 97.6476 29.3151 97.6484 29.0791C97.6484 28.9525 97.5753 28.8711 97.4307 28.835C97.295 28.7898 97.0507 28.7537 96.6982 28.7266V28.1973H99.5195V28.6855C99.1669 28.7308 98.9181 28.8436 98.7734 29.0244L95.7354 33.2285C95.7082 33.8252 95.6953 34.6346 95.6953 35.6562C95.6953 36.6678 95.7176 37.2147 95.7627 37.2969C95.8893 37.5319 96.3416 37.6772 97.1191 37.7314V38.2061H92.915V37.7314C93.2043 37.7043 93.4347 37.6765 93.6064 37.6494C93.7782 37.6223 93.9411 37.564 94.0947 37.4736C94.2575 37.3742 94.3389 37.2428 94.3389 37.0801L94.2852 33.3506C94.0772 32.9799 93.1772 31.6414 91.5859 29.3359C91.3328 28.9383 91.0432 28.7263 90.7178 28.6992V28.6855C90.5009 28.7036 90.338 28.7582 90.2295 28.8486C90.1212 28.93 90.0312 29.0654 89.959 29.2549C88.2321 34.9146 87.3367 37.8987 87.2734 38.2061H86.2695C86.1158 37.4647 85.7495 36.1983 85.1709 34.4082C84.6014 32.6183 84.1675 31.312 83.8691 30.4893C83.6341 31.1131 83.1816 32.4509 82.5127 34.5029C81.8527 36.5462 81.4874 37.7811 81.415 38.2061H80.3564C80.3112 37.8354 79.5657 35.1408 78.1191 30.123L77.9434 29.5537C77.8801 29.2736 77.7939 29.0653 77.6855 28.9297C77.5771 28.7941 77.4004 28.7173 77.1562 28.6992V28.1973H80.6826V28.6992ZM107.323 28.3467C107.305 28.4197 107.241 28.8307 107.133 29.5801C107.024 30.3305 106.966 30.756 106.957 30.8555H106.496C106.324 29.9336 106.215 29.4183 106.17 29.3096C106.134 29.1921 106.071 29.1014 105.98 29.0381C105.682 28.9567 105.135 28.916 104.34 28.916C103.553 28.916 103.078 28.9475 102.915 29.0107C102.753 29.065 102.667 29.1873 102.658 29.377C102.64 29.8651 102.622 30.9411 102.604 32.6045C103.878 32.6045 104.99 32.5823 105.939 32.5371L105.804 33.54H105.573C105.247 33.3052 104.253 33.1875 102.59 33.1875C102.572 34.5256 102.562 35.8234 102.562 37.0801C102.562 37.297 102.726 37.4413 103.051 37.5137C103.376 37.577 103.955 37.6094 104.787 37.6094C105.628 37.6094 106.116 37.5548 106.252 37.4463C106.478 37.2473 106.708 36.6958 106.943 35.792L107.133 35.0596H107.635C107.608 35.2947 107.581 35.8416 107.554 36.7002C107.527 37.5591 107.513 38.0614 107.513 38.2061H99.918V37.7041C100.189 37.686 100.397 37.6629 100.542 37.6357C100.696 37.6086 100.832 37.5504 100.949 37.46C101.076 37.3696 101.139 37.2428 101.139 37.0801C101.175 35.9228 101.193 34.5483 101.193 32.957C101.193 31.3569 101.175 30.1181 101.139 29.2412C101.13 29.0425 101.057 28.9119 100.922 28.8486C100.795 28.7763 100.56 28.731 100.217 28.7129L100.027 28.6992V28.1973C100.515 28.2334 101.13 28.251 101.871 28.251C102.612 28.251 103.187 28.2381 103.594 28.2109L107.16 28.1973L107.323 28.3467ZM136.164 28.1162C136.697 28.1162 137.154 28.1976 137.534 28.3604C137.923 28.514 138.216 28.7307 138.415 29.0107C138.777 29.5261 138.958 30.1459 138.958 30.8691C138.958 31.3573 138.777 31.8588 138.415 32.374C137.71 33.3504 136.67 33.8389 135.296 33.8389C134.654 33.8388 134.17 33.7667 133.845 33.6221L133.818 37.0801C133.818 37.3242 133.981 37.4824 134.307 37.5547C134.578 37.6269 134.912 37.677 135.31 37.7041L135.825 37.7441V38.2061H131.188V37.7041C131.458 37.686 131.666 37.6628 131.811 37.6357C131.955 37.6086 132.091 37.5504 132.218 37.46C132.344 37.3696 132.407 37.2428 132.407 37.0801C132.434 36.158 132.448 34.8516 132.448 33.1611C132.448 31.4704 132.434 30.1634 132.407 29.2412C132.398 29.0425 132.326 28.9119 132.19 28.8486C132.064 28.7763 131.824 28.731 131.472 28.7129L131.282 28.6992V28.1973C131.788 28.2334 132.431 28.251 133.208 28.251C133.994 28.251 134.613 28.2288 135.065 28.1836C135.526 28.1384 135.802 28.1163 135.893 28.1162H136.164ZM70.7373 34.2461H74.291L72.4873 29.7842L70.7373 34.2461ZM136.001 28.7803C135.034 28.7803 134.392 28.8349 134.075 28.9434L133.927 29.0918C133.9 29.8241 133.876 31.0451 133.858 32.7539C134.166 33.0251 134.686 33.1611 135.418 33.1611C135.789 33.1611 136.11 33.1111 136.381 33.0117C136.652 32.9033 136.851 32.781 136.978 32.6455C137.113 32.5099 137.218 32.3378 137.29 32.1299C137.389 31.8316 137.438 31.5243 137.438 31.208C137.438 30.8918 137.43 30.6566 137.412 30.5029C137.403 30.3492 137.367 30.1586 137.304 29.9326C137.195 29.4807 136.892 29.1374 136.395 28.9023C136.214 28.821 136.082 28.7803 136.001 28.7803ZM113.068 28.7529C112.237 28.7529 111.685 28.8122 111.414 28.9297L111.278 29.0791C111.26 29.4772 111.242 30.6025 111.224 32.4551C111.477 32.6088 111.952 32.6865 112.648 32.6865C113.073 32.6864 113.421 32.5726 113.692 32.3467C113.963 32.1118 114.139 31.8589 114.221 31.5879C114.311 31.3076 114.356 31.0181 114.356 30.7197C114.356 30.4214 114.316 30.1503 114.234 29.9062C114.162 29.6621 114.068 29.4716 113.95 29.3359C113.842 29.2004 113.724 29.0828 113.598 28.9834C113.39 28.8297 113.213 28.7529 113.068 28.7529Z" fill="white"/>
</svg>
