<svg width="115" height="33" viewBox="0 0 115 33" fill="none" xmlns="http://www.w3.org/2000/svg">
<path d="M44.7188 0C45.2547 0 45.6893 0.436314 45.6895 0.974609V8.49121H43.748V3.06934L16.4805 32.0957H0.0302734V1.9502H0V0H44.7188ZM4.36719 30.3057H4.56055L11.1719 1.9502H7.92773L4.36719 30.3057ZM6.61621 30.3057H6.83691L16.9453 1.9502H13.2285L6.61621 30.3057ZM8.89355 30.3057H9.12988L22.9893 1.9502H19.002L8.89355 30.3057ZM11.1865 30.3057H11.415L28.8984 1.9502H25.0459L11.1865 30.3057ZM13.4717 30.3057H13.7285L35.2803 1.9502H30.9551L13.4717 30.3057ZM15.7842 30.3057H16.1055L42.7441 1.9502H37.3369L15.7842 30.3057ZM100.734 16.6992C100.445 16.7173 100.228 16.7395 100.083 16.7666C99.7033 16.848 99.5137 17.0339 99.5137 17.3232L99.5273 20.917V22.002C99.5364 22.4991 99.54 22.9331 99.54 23.3037C99.5401 23.6653 99.5854 23.9549 99.6758 24.1719C99.7662 24.3888 99.9115 24.61 100.11 24.8359C100.318 25.0529 100.621 25.2343 101.019 25.3789C101.416 25.5145 101.859 25.582 102.348 25.582C102.836 25.582 103.229 25.532 103.527 25.4326C103.826 25.3242 104.065 25.1797 104.246 24.999C104.436 24.8092 104.577 24.5334 104.667 24.1719C104.83 23.5571 104.911 22.6255 104.911 21.3779L104.884 17.3232C104.884 16.9978 104.477 16.7989 103.663 16.7266V16.1973H106.864V16.6855C106.168 16.7669 105.806 16.9658 105.779 17.2822L105.766 17.5264C105.748 17.7796 105.72 18.6705 105.684 20.1982C105.647 21.726 105.63 22.7206 105.63 23.1816C105.63 23.6336 105.548 24.0722 105.386 24.4971C105.223 24.922 105.015 25.2569 104.762 25.501C104.518 25.7359 104.201 25.9257 103.812 26.0703C103.424 26.2059 103.048 26.292 102.687 26.3281C102.325 26.3733 101.891 26.3955 101.385 26.3955C100.888 26.3955 100.431 26.3141 100.015 26.1514C99.5991 25.9887 99.2787 25.7942 99.0527 25.5684C98.8268 25.3333 98.6361 25.0668 98.4824 24.7686C98.2474 24.2804 98.1299 23.7919 98.1299 23.3037C98.1118 19.4612 98.0896 17.4447 98.0625 17.2549C98.0444 17.0651 97.9676 16.9337 97.832 16.8613C97.6964 16.78 97.416 16.7263 96.9912 16.6992V16.1973H100.734V16.6992ZM89.5156 16.1162C90.1213 16.1162 90.6459 16.3374 91.0889 16.7803C91.5409 17.2232 91.7675 17.7747 91.7676 18.4346C91.7676 19.0855 91.6408 19.5832 91.3877 19.9268C91.1345 20.2703 90.709 20.6366 90.1123 21.0254C91.0615 22.8876 91.8664 24.3429 92.5264 25.3916L93.2725 25.7178V26.2061C92.4588 26.2061 91.8029 26.2236 91.3057 26.2598L88.9326 21.3643H88.5527C88.0015 21.3642 87.5544 21.3049 87.2109 21.1875C87.1838 23.0952 87.1699 24.393 87.1699 25.0801C87.1699 25.3603 87.3642 25.5453 87.7529 25.6357C87.8976 25.6629 88.1104 25.686 88.3906 25.7041V26.2061H84.6338V25.7041C84.905 25.686 85.1132 25.6629 85.2578 25.6357C85.4113 25.6086 85.5467 25.5502 85.6641 25.46C85.7906 25.3696 85.8545 25.2428 85.8545 25.0801C85.8545 21.9519 85.8231 19.3387 85.7598 17.2412C85.7507 17.0424 85.6776 16.9119 85.542 16.8486C85.4154 16.7763 85.1758 16.731 84.8232 16.7129L84.6338 16.6992V16.1973C85.14 16.2334 85.7637 16.251 86.5049 16.251C87.2553 16.251 87.8797 16.2288 88.377 16.1836C88.8831 16.1384 89.1728 16.1162 89.2451 16.1162H89.5156ZM40.4902 16.6992L40.3008 16.7129C40.0477 16.731 39.8534 16.7485 39.7178 16.7666C39.3653 16.8299 39.1886 16.9882 39.1885 17.2412C39.1252 19.0494 39.0938 21.6625 39.0938 25.0801C39.0938 25.4327 39.5368 25.6094 40.4229 25.6094H40.708C41.6752 25.6094 42.2221 25.5548 42.3486 25.4463C42.5746 25.2474 42.805 24.6959 43.04 23.792L43.2305 23.0596H43.7314C43.7043 23.2947 43.6775 23.8416 43.6504 24.7002C43.6233 25.5591 43.6094 26.0614 43.6094 26.2061H36.5576V25.7041C36.8469 25.686 37.069 25.6629 37.2227 25.6357C37.5931 25.5543 37.7783 25.3693 37.7783 25.0801C37.7783 21.8886 37.7469 19.2755 37.6836 17.2412C37.6745 17.0336 37.6021 16.8983 37.4668 16.835C37.3403 16.7717 37.1004 16.731 36.748 16.7129L36.5576 16.6992V16.1973H40.4902V16.6992ZM49.2871 16.1289C51.6004 21.8489 52.7937 24.7832 52.8672 24.9307C52.9485 25.0751 53.0208 25.1928 53.084 25.2832C53.1562 25.3645 53.2694 25.4507 53.4229 25.541C53.5765 25.6314 53.7579 25.6907 53.9658 25.7178V26.2061H50.0869V25.7441C50.8916 25.6809 51.2939 25.482 51.2939 25.1475C51.2938 24.9034 51.1994 24.5645 51.0098 24.1309L50.752 23.5342C50.6435 23.2901 50.5482 23.0551 50.4668 22.8291H46.5479C46.3851 23.1998 46.2038 23.6475 46.0049 24.1719C45.8061 24.6869 45.707 24.9897 45.707 25.0801C45.707 25.4056 46.114 25.6044 46.9277 25.6768V26.2061H43.7266V25.7178C44.0249 25.6907 44.2469 25.6268 44.3916 25.5273C44.5361 25.4188 44.6899 25.2197 44.8525 24.9307C45.0153 24.6323 45.2457 24.1076 45.5439 23.3574L48.3652 16.3057C48.4287 16.2605 48.5732 16.2197 48.7988 16.1836C49.0339 16.1474 49.1967 16.1289 49.2871 16.1289ZM56.6826 16.6992C56.2125 16.7354 55.8998 16.7853 55.7461 16.8486C55.6018 16.903 55.5293 17.0206 55.5293 17.2012C55.5297 17.3742 55.7785 18.4456 56.2754 20.415C56.7725 22.3762 57.0982 23.5513 57.252 23.9404C57.5141 23.2803 57.9305 22.0285 58.5 20.1846C59.0784 18.3409 59.367 17.3372 59.3672 17.1738C59.3672 17.002 59.2904 16.8892 59.1367 16.835C58.983 16.7717 58.7165 16.7263 58.3369 16.6992V16.1973H62.0938V16.6992C61.479 16.7354 61.1709 16.8843 61.1709 17.1465C61.1709 17.2188 61.2755 17.6804 61.4834 18.5303C62.1433 21.1607 62.6679 22.964 63.0566 23.9404C63.4454 22.7742 63.8561 21.4179 64.29 19.8721C64.7239 18.3174 64.9413 17.4542 64.9414 17.2822C64.9414 17.1014 64.8554 16.9747 64.6836 16.9023C64.5208 16.821 64.2312 16.7627 63.8154 16.7266V16.1973H70.4609V16.6992C70.018 16.7354 69.7191 16.7853 69.5654 16.8486C69.4121 16.9119 69.335 17.0111 69.335 17.1465C69.335 17.3544 70.0176 18.5301 71.3828 20.6729C72.8918 18.5132 73.6476 17.3151 73.6484 17.0791C73.6484 16.9525 73.5753 16.8711 73.4307 16.835C73.295 16.7898 73.0507 16.7537 72.6982 16.7266V16.1973H75.5195V16.6855C75.1669 16.7308 74.9181 16.8436 74.7734 17.0244L71.7354 21.2285C71.7082 21.8252 71.6953 22.6346 71.6953 23.6562C71.6953 24.6678 71.7176 25.2147 71.7627 25.2969C71.8893 25.5319 72.3416 25.6772 73.1191 25.7314V26.2061H68.915V25.7314C69.2043 25.7043 69.4347 25.6765 69.6064 25.6494C69.7782 25.6223 69.9411 25.564 70.0947 25.4736C70.2575 25.3742 70.3389 25.2428 70.3389 25.0801L70.2852 21.3506C70.0772 20.9799 69.1772 19.6414 67.5859 17.3359C67.3328 16.9383 67.0432 16.7263 66.7178 16.6992V16.6855C66.5009 16.7036 66.338 16.7582 66.2295 16.8486C66.1212 16.93 66.0312 17.0654 65.959 17.2549C64.2321 22.9146 63.3367 25.8987 63.2734 26.2061H62.2695C62.1158 25.4647 61.7495 24.1983 61.1709 22.4082C60.6014 20.6183 60.1675 19.312 59.8691 18.4893C59.6341 19.1131 59.1816 20.4509 58.5127 22.5029C57.8527 24.5462 57.4874 25.7811 57.415 26.2061H56.3564C56.3112 25.8354 55.5657 23.1408 54.1191 18.123L53.9434 17.5537C53.8801 17.2736 53.7939 17.0653 53.6855 16.9297C53.5771 16.7941 53.4004 16.7173 53.1562 16.6992V16.1973H56.6826V16.6992ZM83.3232 16.3467C83.3051 16.4197 83.2412 16.8307 83.1328 17.5801C83.0243 18.3305 82.9661 18.756 82.957 18.8555H82.4961C82.3244 17.9336 82.2152 17.4183 82.1699 17.3096C82.1338 17.1921 82.0709 17.1014 81.9805 17.0381C81.6822 16.9567 81.1353 16.916 80.3398 16.916C79.5533 16.916 79.0778 16.9475 78.915 17.0107C78.7526 17.065 78.6673 17.1873 78.6582 17.377C78.6401 17.8651 78.6216 18.9411 78.6035 20.6045C79.8782 20.6045 80.9902 20.5823 81.9395 20.5371L81.8037 21.54H81.5732C81.2473 21.3052 80.2526 21.1875 78.5898 21.1875C78.5718 22.5256 78.5625 23.8234 78.5625 25.0801C78.5625 25.297 78.7256 25.4413 79.0508 25.5137C79.3763 25.577 79.9553 25.6094 80.7871 25.6094C81.6279 25.6094 82.1163 25.5548 82.252 25.4463C82.4779 25.2473 82.7084 24.6958 82.9434 23.792L83.1328 23.0596H83.6348C83.6077 23.2947 83.5808 23.8416 83.5537 24.7002C83.5266 25.5591 83.5127 26.0614 83.5127 26.2061H75.918V25.7041C76.1891 25.686 76.3973 25.6629 76.542 25.6357C76.6957 25.6086 76.8317 25.5504 76.9492 25.46C77.0758 25.3696 77.1387 25.2428 77.1387 25.0801C77.1748 23.9228 77.1934 22.5483 77.1934 20.957C77.1934 19.3569 77.1748 18.1181 77.1387 17.2412C77.1296 17.0425 77.0574 16.9119 76.9219 16.8486C76.7953 16.7763 76.5603 16.731 76.2168 16.7129L76.0273 16.6992V16.1973C76.5154 16.2334 77.13 16.251 77.8711 16.251C78.6125 16.251 79.1869 16.2381 79.5938 16.2109L83.1602 16.1973L83.3232 16.3467ZM112.164 16.1162C112.697 16.1162 113.154 16.1976 113.534 16.3604C113.923 16.514 114.216 16.7307 114.415 17.0107C114.777 17.5261 114.958 18.1459 114.958 18.8691C114.958 19.3573 114.777 19.8588 114.415 20.374C113.71 21.3504 112.67 21.8389 111.296 21.8389C110.654 21.8388 110.17 21.7667 109.845 21.6221L109.818 25.0801C109.818 25.3242 109.981 25.4824 110.307 25.5547C110.578 25.6269 110.912 25.677 111.31 25.7041L111.825 25.7441V26.2061H107.188V25.7041C107.458 25.686 107.666 25.6628 107.811 25.6357C107.955 25.6086 108.091 25.5504 108.218 25.46C108.344 25.3696 108.407 25.2428 108.407 25.0801C108.434 24.158 108.448 22.8516 108.448 21.1611C108.448 19.4704 108.434 18.1634 108.407 17.2412C108.398 17.0425 108.326 16.9119 108.19 16.8486C108.064 16.7763 107.824 16.731 107.472 16.7129L107.282 16.6992V16.1973C107.788 16.2334 108.431 16.251 109.208 16.251C109.994 16.251 110.613 16.2288 111.065 16.1836C111.526 16.1384 111.802 16.1163 111.893 16.1162H112.164ZM46.7373 22.2461H50.291L48.4873 17.7842L46.7373 22.2461ZM112.001 16.7803C111.034 16.7803 110.392 16.8349 110.075 16.9434L109.927 17.0918C109.9 17.8241 109.876 19.0451 109.858 20.7539C110.166 21.0251 110.686 21.1611 111.418 21.1611C111.789 21.1611 112.11 21.1111 112.381 21.0117C112.652 20.9033 112.851 20.781 112.978 20.6455C113.113 20.5099 113.218 20.3378 113.29 20.1299C113.389 19.8316 113.438 19.5243 113.438 19.208C113.438 18.8918 113.43 18.6566 113.412 18.5029C113.403 18.3492 113.367 18.1586 113.304 17.9326C113.195 17.4807 112.892 17.1374 112.395 16.9023C112.214 16.821 112.082 16.7803 112.001 16.7803ZM89.0684 16.7529C88.2367 16.7529 87.6853 16.8122 87.4141 16.9297L87.2783 17.0791C87.2602 17.4772 87.2417 18.6025 87.2236 20.4551C87.4768 20.6088 87.9523 20.6865 88.6484 20.6865C89.0732 20.6864 89.4212 20.5726 89.6924 20.3467C89.9633 20.1118 90.1393 19.8589 90.2207 19.5879C90.3111 19.3076 90.3564 19.0181 90.3564 18.7197C90.3564 18.4214 90.3157 18.1503 90.2344 17.9062C90.162 17.6621 90.0677 17.4716 89.9502 17.3359C89.8417 17.2004 89.7242 17.0828 89.5977 16.9834C89.3897 16.8297 89.213 16.7529 89.0684 16.7529Z" fill="white"/>
</svg>
