<svg width="20" height="20" viewBox="0 0 20 20" fill="none" xmlns="http://www.w3.org/2000/svg">
<path d="M15.117 18.0166C14.3836 18.2333 13.517 18.3333 12.5003 18.3333H7.50029C6.48362 18.3333 5.61695 18.2333 4.88362 18.0166C5.06695 15.85 7.29195 14.1416 10.0003 14.1416C12.7086 14.1416 14.9336 15.85 15.117 18.0166Z" stroke="#F0F2F5" stroke-width="1.5" stroke-linecap="round" stroke-linejoin="round"/>
<path d="M12.5 1.6665H7.5C3.33334 1.6665 1.66667 3.33317 1.66667 7.49984V12.4998C1.66667 15.6498 2.61667 17.3748 4.88334 18.0165C5.06667 15.8498 7.29167 14.1415 10 14.1415C12.7083 14.1415 14.9333 15.8498 15.1167 18.0165C17.3833 17.3748 18.3333 15.6498 18.3333 12.4998V7.49984C18.3333 3.33317 16.6667 1.6665 12.5 1.6665ZM10 11.8082C8.35 11.8082 7.01667 10.4665 7.01667 8.81652C7.01667 7.16652 8.35 5.83317 10 5.83317C11.65 5.83317 12.9833 7.16652 12.9833 8.81652C12.9833 10.4665 11.65 11.8082 10 11.8082Z" stroke="#F0F2F5" stroke-width="1.5" stroke-linecap="round" stroke-linejoin="round"/>
<path d="M12.9833 8.81684C12.9833 10.4668 11.65 11.8085 10 11.8085C8.35 11.8085 7.01666 10.4668 7.01666 8.81684C7.01666 7.16684 8.35 5.8335 10 5.8335C11.65 5.8335 12.9833 7.16684 12.9833 8.81684Z" stroke="#F0F2F5" stroke-width="1.5" stroke-linecap="round" stroke-linejoin="round"/>
</svg>
