<svg width="20" height="20" viewBox="0 0 20 20" fill="none" xmlns="http://www.w3.org/2000/svg">
<path d="M17.9167 4.4585C17.9167 5.21683 17.5583 5.89183 17.0083 6.32516C16.6083 6.64183 16.1 6.8335 15.5417 6.8335C14.225 6.8335 13.1667 5.77516 13.1667 4.4585C13.1667 3.90016 13.3583 3.40016 13.675 2.99183H13.6833C14.1083 2.44183 14.7833 2.0835 15.5417 2.0835C16.8583 2.0835 17.9167 3.14183 17.9167 4.4585Z" stroke="#F0F2F5" stroke-width="1.5" stroke-linecap="round" stroke-linejoin="round"/>
<path d="M6.83334 4.4585C6.83334 5.77516 5.77501 6.8335 4.45834 6.8335C3.90001 6.8335 3.40001 6.64183 2.99168 6.32516C2.44168 5.89183 2.08334 5.21683 2.08334 4.4585C2.08334 3.14183 3.14168 2.0835 4.45834 2.0835C5.21668 2.0835 5.89168 2.44183 6.32501 2.99183C6.64168 3.40016 6.83334 3.90016 6.83334 4.4585Z" stroke="#F0F2F5" stroke-width="1.5" stroke-linecap="round" stroke-linejoin="round"/>
<path d="M17.9167 15.5415C17.9167 16.8582 16.8583 17.9165 15.5417 17.9165C14.7833 17.9165 14.1083 17.5582 13.6833 17.0082H13.675C13.3583 16.6082 13.1667 16.0998 13.1667 15.5415C13.1667 14.2248 14.225 13.1665 15.5417 13.1665C16.1 13.1665 16.6 13.3582 17.0083 13.6748V13.6832C17.5583 14.1082 17.9167 14.7832 17.9167 15.5415Z" stroke="#F0F2F5" stroke-width="1.5" stroke-linecap="round" stroke-linejoin="round"/>
<path d="M6.83334 15.5415C6.83334 16.0998 6.64168 16.5998 6.32501 17.0082C5.89168 17.5665 5.21668 17.9165 4.45834 17.9165C3.14168 17.9165 2.08334 16.8582 2.08334 15.5415C2.08334 14.7832 2.44168 14.1082 2.99168 13.6832V13.6748C3.39168 13.3582 3.90001 13.1665 4.45834 13.1665C5.77501 13.1665 6.83334 14.2248 6.83334 15.5415Z" stroke="#F0F2F5" stroke-width="1.5" stroke-linecap="round" stroke-linejoin="round"/>
<path d="M17.9167 10.0002C17.9167 11.3335 17.5917 12.5752 17.0083 13.6752C16.6083 13.3585 16.1 13.1668 15.5417 13.1668C14.225 13.1668 13.1667 14.2252 13.1667 15.5418C13.1667 16.1002 13.3583 16.6002 13.675 17.0085C12.575 17.5918 11.3333 17.9168 10 17.9168C8.67501 17.9168 7.42501 17.5918 6.32501 17.0085C6.64168 16.6085 6.83334 16.1002 6.83334 15.5418C6.83334 14.2252 5.77501 13.1668 4.45834 13.1668C3.90001 13.1668 3.40001 13.3585 2.99168 13.6752C2.40834 12.5752 2.08334 11.3335 2.08334 10.0002C2.08334 8.67516 2.40834 7.42516 2.99168 6.32516C3.40001 6.64183 3.90001 6.8335 4.45834 6.8335C5.77501 6.8335 6.83334 5.77516 6.83334 4.4585C6.83334 3.90016 6.64168 3.40016 6.32501 2.99183C7.42501 2.4085 8.67501 2.0835 10 2.0835C11.3333 2.0835 12.575 2.4085 13.675 2.99183C13.3583 3.39183 13.1667 3.90016 13.1667 4.4585C13.1667 5.77516 14.225 6.8335 15.5417 6.8335C16.1 6.8335 16.6 6.64183 17.0083 6.32516C17.5917 7.42516 17.9167 8.67516 17.9167 10.0002Z" stroke="#F0F2F5" stroke-width="1.5" stroke-linecap="round" stroke-linejoin="round"/>
</svg>
