<svg width="20" height="20" viewBox="0 0 20 20" fill="none" xmlns="http://www.w3.org/2000/svg">
<path d="M7.5 18.3332H12.5C16.6667 18.3332 18.3333 16.6665 18.3333 12.4998V7.49984C18.3333 3.33317 16.6667 1.6665 12.5 1.6665H7.5C3.33334 1.6665 1.66667 3.33317 1.66667 7.49984V12.4998C1.66667 16.6665 3.33334 18.3332 7.5 18.3332Z" stroke="#F0F2F5" stroke-width="1.5" stroke-linecap="round" stroke-linejoin="round"/>
<path d="M14.1667 2.0332V10.3499C14.1667 11.9915 12.9917 12.6332 11.55 11.7665L10.45 11.1082C10.2 10.9582 9.79999 10.9582 9.54999 11.1082L8.45 11.7665C7.00833 12.6249 5.83333 11.9915 5.83333 10.3499V2.0332" stroke="#F0F2F5" stroke-width="1.5" stroke-linecap="round" stroke-linejoin="round"/>
<path d="M7.5 18.3332H12.5C16.6667 18.3332 18.3333 16.6665 18.3333 12.4998V7.49984C18.3333 3.33317 16.6667 1.6665 12.5 1.6665H7.5C3.33334 1.6665 1.66667 3.33317 1.66667 7.49984V12.4998C1.66667 16.6665 3.33334 18.3332 7.5 18.3332Z" stroke="#F0F2F5" stroke-width="1.5" stroke-linecap="round" stroke-linejoin="round"/>
<path d="M14.1667 2.0332V10.3499C14.1667 11.9915 12.9917 12.6332 11.55 11.7665L10.45 11.1082C10.2 10.9582 9.79999 10.9582 9.54999 11.1082L8.45 11.7665C7.00833 12.6249 5.83333 11.9915 5.83333 10.3499V2.0332" stroke="#F0F2F5" stroke-width="1.5" stroke-linecap="round" stroke-linejoin="round"/>
</svg>
