<svg width="73" height="103" viewBox="0 0 73 103" fill="none" xmlns="http://www.w3.org/2000/svg">
<path fill-rule="evenodd" clip-rule="evenodd" d="M0 102.869H4.39023V102.801H72.2632V65.7644L6.91122 4.37042H19.1169V0H2.19512C0.982787 0 0 0.978356 0 2.18521V102.869ZM4.39023 6.63167V18.8059L68.2327 67.3305V66.6076L4.39023 6.63167ZM4.39023 23.4354V33.1748L68.2327 72.5384V71.9601L4.39023 23.4354ZM4.39023 37.8043V46.4784L68.2327 77.6831V77.168L4.39023 37.8043ZM4.39023 51.108V60.0864L68.2327 82.8458V82.3126L4.39023 51.108ZM4.39023 64.716V73.0857L68.2327 87.9724V87.4753L4.39023 64.716ZM4.39023 77.7153V85.0198L68.2327 93.0357V92.6019L4.39023 77.7153ZM4.39023 89.6494V98.1713H68.2327V97.6652L4.39023 89.6494Z" fill="#013334"/>
</svg>
