<svg width="144" height="40" viewBox="0 0 144 40" fill="none" xmlns="http://www.w3.org/2000/svg">
<path fill-rule="evenodd" clip-rule="evenodd" d="M0 0V2.43742H0.0377211V40.1199H20.6L54.6855 3.83705V10.6136H57.1119V1.21871C57.1119 0.545635 56.5687 0 55.8987 0H0ZM53.43 2.43742H46.671L19.7305 37.8822H20.1319L53.43 2.43742ZM44.1007 2.43742H38.6935L16.8392 37.8822H17.1602L44.1007 2.43742ZM36.1233 2.43742H31.3075L13.9829 37.8822H14.2689L36.1233 2.43742ZM28.7372 2.43742H23.7524L11.1166 37.8822H11.4126L28.7372 2.43742ZM21.1821 2.43742H16.5353L8.27037 37.8822H8.54631L21.1821 2.43742ZM13.965 2.43742H9.90961L5.45926 37.8822H5.70008L13.965 2.43742ZM45.6973 31.63V32.2573H54.5124C54.5124 32.0764 54.5293 31.4492 54.5632 30.3756C54.5971 29.302 54.631 28.6182 54.665 28.3244H54.0377L53.8004 29.2398C53.5066 30.3699 53.2184 31.0593 52.9358 31.3079C52.7776 31.4436 52.0939 31.5114 50.8846 31.5114H50.5286C49.4211 31.5114 48.8673 31.291 48.8673 30.8502C48.8673 26.5783 48.9069 23.3122 48.986 21.0519C48.986 20.7355 49.2064 20.5377 49.6471 20.4586C49.8167 20.436 50.0596 20.4134 50.3761 20.3908L50.6134 20.3739V19.7466H45.6973V20.3739L45.9346 20.3908C46.3754 20.4134 46.6749 20.4643 46.8331 20.5434C47.0026 20.6225 47.093 20.792 47.1043 21.0519C47.1834 23.5947 47.223 26.8609 47.223 30.8502C47.223 31.2119 46.9913 31.4436 46.528 31.5453C46.3358 31.5792 46.0589 31.6074 45.6973 31.63ZM54.6585 31.647V32.2573H58.6591V31.5961C57.642 31.5057 57.1335 31.2571 57.1335 30.8502C57.1335 30.7372 57.2578 30.3586 57.5064 29.7145C57.755 29.059 57.9811 28.4996 58.1845 28.0362H63.0836C63.1854 28.3187 63.304 28.6126 63.4396 28.9177L63.7617 29.6636C63.9991 30.2061 64.1177 30.6299 64.1177 30.935C64.1177 31.3532 63.6148 31.6018 62.609 31.6809V32.2573H67.4573V31.647C67.1973 31.6131 66.9713 31.5396 66.7792 31.4266C66.5871 31.3136 66.4458 31.2062 66.3554 31.1045C66.2763 30.9915 66.1859 30.8446 66.0842 30.6638C65.9938 30.4829 64.502 26.8156 61.6088 19.6619C61.4958 19.6619 61.2924 19.6845 60.9985 19.7297C60.716 19.7749 60.5352 19.8257 60.4561 19.8822L56.93 28.6973C56.5571 29.6353 56.2689 30.2908 56.0655 30.6638C55.8621 31.0254 55.6699 31.274 55.4891 31.4097C55.3083 31.534 55.0314 31.6131 54.6585 31.647ZM62.8633 27.3073H58.4218L60.6086 21.73L62.8633 27.3073ZM66.4454 19.7466V20.3739C66.7506 20.3965 66.971 20.4925 67.1066 20.662C67.2422 20.8316 67.3496 21.0915 67.4287 21.4418L67.649 22.1538C69.4573 28.4261 70.3896 31.7939 70.4461 32.2573H71.7684C71.8588 31.7261 72.3165 30.1835 73.1415 27.6293C73.9778 25.0639 74.5429 23.3913 74.8367 22.6115C75.2097 23.64 75.7521 25.273 76.4641 27.5107C77.1874 29.7484 77.6451 31.3305 77.8372 32.2573H79.0917C79.1708 31.873 80.2896 28.1436 82.4482 21.0689C82.5386 20.8316 82.6516 20.662 82.7873 20.5603C82.9229 20.4473 83.1263 20.3795 83.3975 20.3569V20.3739C83.8044 20.4078 84.166 20.6733 84.4825 21.1706C86.4715 24.0525 87.596 25.7251 87.8559 26.1884L87.9237 30.8502C87.9237 31.0537 87.822 31.2175 87.6186 31.3419C87.4265 31.4549 87.2231 31.5283 87.0083 31.5622C86.7936 31.5961 86.5054 31.63 86.1438 31.6639V32.2573H91.3989V31.6639C90.427 31.5961 89.8619 31.4153 89.7037 31.1215C89.6472 31.0198 89.6189 30.336 89.6189 29.0703C89.6189 27.7932 89.6359 26.7817 89.6698 26.0359L93.4671 20.7807C93.6479 20.5547 93.9587 20.4134 94.3994 20.3569V19.7466H90.8734V20.4078C91.3142 20.4417 91.6193 20.4869 91.7888 20.5434C91.9696 20.5886 92.06 20.6903 92.06 20.8485C92.06 21.1423 91.1164 22.6398 89.229 25.3408C87.5225 22.6624 86.6693 21.1932 86.6693 20.9333C86.6693 20.7638 86.7654 20.6394 86.9575 20.5603C87.1496 20.4812 87.5225 20.4191 88.0763 20.3739V19.7466H83.3975H79.7698V20.4078C80.2896 20.453 80.6513 20.5264 80.8547 20.6281C81.0695 20.7185 81.1768 20.8768 81.1768 21.1028C81.1768 21.3175 80.9056 22.3968 80.3631 24.3406C79.8206 26.2732 79.3064 27.9684 78.8205 29.4263C78.3345 28.2057 77.679 25.9511 76.854 22.6624C76.5941 21.6001 76.4641 21.0237 76.4641 20.9333C76.4641 20.6055 76.8484 20.4191 77.6169 20.3739V19.7466H72.9212V20.3739C73.3958 20.4078 73.7292 20.4643 73.9213 20.5434C74.1134 20.6112 74.2095 20.7525 74.2095 20.9672C74.2095 21.1706 73.8479 22.4251 73.1246 24.7305C72.4126 27.036 71.8927 28.6013 71.565 29.4263C71.3729 28.9403 70.966 27.4711 70.3444 25.0187C69.7229 22.555 69.4121 21.2158 69.4121 21.0011C69.4121 20.7751 69.5025 20.6281 69.6833 20.5603C69.8754 20.4812 70.2653 20.4191 70.853 20.3739V19.7466H66.4454ZM94.8981 31.63V32.2573H104.391C104.391 32.0764 104.408 31.4492 104.442 30.3756C104.476 29.302 104.51 28.6182 104.544 28.3244H103.917L103.679 29.2398C103.385 30.3699 103.097 31.0593 102.815 31.3079C102.645 31.4436 102.035 31.5114 100.984 31.5114C99.9441 31.5114 99.2208 31.4718 98.814 31.3927C98.4071 31.3023 98.2037 31.1215 98.2037 30.8502C98.2037 29.2793 98.215 27.6576 98.2376 25.985C100.317 25.985 101.56 26.1319 101.967 26.4257H102.255L102.425 25.1713C101.238 25.2278 99.8481 25.2561 98.2546 25.2561C98.2772 23.1766 98.2998 21.8317 98.3224 21.2215C98.3337 20.9841 98.441 20.8316 98.6445 20.7638C98.8479 20.6846 99.4412 20.6451 100.424 20.6451C101.419 20.6451 102.103 20.6959 102.476 20.7977C102.589 20.8768 102.668 20.9898 102.713 21.1367C102.769 21.2723 102.905 21.9165 103.12 23.0692H103.696C103.707 22.9449 103.781 22.4138 103.917 21.4757C104.052 20.5377 104.131 20.0235 104.154 19.9331L103.95 19.7466L99.4921 19.7636C98.9835 19.7975 98.2659 19.8144 97.3392 19.8144C96.4124 19.8144 95.644 19.7918 95.0337 19.7466V20.3739L95.271 20.3908C95.7005 20.4134 95.9943 20.4699 96.1525 20.5603C96.322 20.6394 96.4124 20.8033 96.4238 21.0519C96.469 22.1482 96.4916 23.6965 96.4916 25.6968C96.4916 27.6859 96.469 29.4037 96.4238 30.8502C96.4238 31.0537 96.3446 31.2119 96.1864 31.3249C96.0395 31.4379 95.87 31.5114 95.6779 31.5453C95.497 31.5792 95.2371 31.6074 94.8981 31.63ZM105.792 31.63V32.2573H110.488V31.63C110.138 31.6074 109.872 31.5792 109.691 31.5453C109.205 31.4323 108.962 31.2006 108.962 30.8502C108.962 29.9913 108.979 28.3696 109.013 25.985C109.443 26.1319 110.002 26.2054 110.691 26.2054H111.166L114.133 32.3251C114.754 32.2799 115.574 32.2573 116.591 32.2573V31.647L115.658 31.2401C114.833 29.9292 113.828 28.1097 112.641 25.7816C113.387 25.2956 113.918 24.8379 114.234 24.4084C114.551 23.979 114.709 23.3574 114.709 22.5437C114.709 21.7187 114.427 21.0293 113.861 20.4756C113.308 19.9218 112.652 19.6449 111.895 19.6449H111.556C111.466 19.6449 111.104 19.6732 110.471 19.7297C109.849 19.7862 109.07 19.8144 108.132 19.8144C107.205 19.8144 106.425 19.7918 105.792 19.7466V20.3739L106.03 20.3908C106.47 20.4134 106.77 20.4699 106.928 20.5603C107.098 20.6394 107.188 20.8033 107.199 21.0519C107.278 23.6739 107.318 26.94 107.318 30.8502C107.318 31.0537 107.239 31.2119 107.081 31.3249C106.934 31.4379 106.764 31.5114 106.572 31.5453C106.391 31.5792 106.131 31.6074 105.792 31.63ZM110.81 25.3578C109.94 25.3578 109.347 25.2617 109.03 25.0696C109.053 22.7528 109.075 21.3458 109.098 20.8485L109.267 20.662C109.607 20.5151 110.296 20.4417 111.336 20.4417C111.516 20.4417 111.737 20.5377 111.997 20.7298C112.155 20.8542 112.302 21.0011 112.438 21.1706C112.584 21.3401 112.703 21.5775 112.794 21.8826C112.895 22.1877 112.946 22.5268 112.946 22.8997C112.946 23.2727 112.89 23.6343 112.777 23.9846C112.675 24.3237 112.454 24.6401 112.115 24.934C111.776 25.2165 111.341 25.3578 110.81 25.3578ZM131.105 21.1537L131.139 26.2223C131.139 27.7819 131.037 28.946 130.834 29.7145C130.721 30.1665 130.545 30.5112 130.308 30.7485C130.082 30.9746 129.783 31.1554 129.41 31.291C129.037 31.4153 128.545 31.4775 127.935 31.4775C127.324 31.4775 126.771 31.3927 126.273 31.2232C125.776 31.0424 125.398 30.8163 125.138 30.5451C124.889 30.2626 124.708 29.9857 124.595 29.7145C124.482 29.4432 124.426 29.0816 124.426 28.6295C124.426 28.1662 124.42 27.6237 124.409 27.0021V25.646L124.392 21.1537C124.392 20.792 124.629 20.5603 125.104 20.4586C125.285 20.4247 125.556 20.3965 125.917 20.3739V19.7466H121.239V20.3739C121.77 20.4078 122.12 20.4756 122.29 20.5773C122.459 20.6677 122.555 20.8316 122.578 21.0689C122.612 21.3062 122.64 23.8264 122.663 28.6295C122.663 29.2398 122.81 29.8501 123.103 30.4603C123.296 30.8333 123.533 31.1667 123.815 31.4605C124.098 31.743 124.499 31.986 125.019 32.1895C125.539 32.3929 126.11 32.4946 126.731 32.4946C127.364 32.4946 127.906 32.4663 128.359 32.4098C128.811 32.3646 129.28 32.2573 129.766 32.0877C130.252 31.9069 130.647 31.6696 130.952 31.3758C131.269 31.0706 131.529 30.6525 131.732 30.1213C131.935 29.5901 132.037 29.042 132.037 28.4769C132.037 27.9006 132.06 26.6574 132.105 24.7475C132.15 22.8376 132.184 21.7244 132.207 21.4079L132.224 21.1028C132.258 20.7072 132.71 20.4586 133.58 20.3569V19.7466H129.579V20.4078C130.596 20.4982 131.105 20.7468 131.105 21.1537ZM137.273 30.8502L137.306 26.5275C137.713 26.7083 138.318 26.7987 139.12 26.7987C140.838 26.7987 142.138 26.1884 143.019 24.9679C143.471 24.3237 143.697 23.6965 143.697 23.0862C143.697 22.1821 143.471 21.4079 143.019 20.7638C142.771 20.4134 142.403 20.1422 141.917 19.9501C141.443 19.7466 140.872 19.6449 140.205 19.6449H139.866C139.753 19.6449 139.409 19.6732 138.832 19.7297C138.267 19.7862 137.493 19.8144 136.51 19.8144C135.538 19.8144 134.735 19.7918 134.103 19.7466V20.3739L134.34 20.3908C134.781 20.4134 135.08 20.4699 135.238 20.5603C135.408 20.6394 135.498 20.8033 135.51 21.0519C135.543 22.2047 135.56 23.8377 135.56 25.9511C135.56 28.0644 135.543 29.6975 135.51 30.8502C135.51 31.0537 135.43 31.2119 135.272 31.3249C135.114 31.4379 134.944 31.5114 134.764 31.5453C134.583 31.5792 134.323 31.6074 133.984 31.63V32.2573H139.781V31.6809L139.137 31.63C138.64 31.5961 138.222 31.534 137.883 31.4436C137.476 31.3532 137.273 31.1554 137.273 30.8502ZM139.273 25.9511C138.357 25.9511 137.708 25.7816 137.323 25.4425C137.346 23.3066 137.374 21.7809 137.408 20.8655L137.595 20.679C137.99 20.5434 138.793 20.4756 140.002 20.4756C140.104 20.4756 140.267 20.5264 140.493 20.6281C141.115 20.922 141.494 21.3514 141.629 21.9165C141.708 22.199 141.754 22.4364 141.765 22.6285C141.787 22.8206 141.799 23.1144 141.799 23.51C141.799 23.9055 141.737 24.2898 141.612 24.6627C141.522 24.9227 141.392 25.1374 141.222 25.3069C141.064 25.4764 140.816 25.629 140.477 25.7646C140.137 25.8889 139.736 25.9511 139.273 25.9511Z" fill="#013334"/>
</svg>
