<svg width="102" height="71" viewBox="0 0 102 71" fill="none" xmlns="http://www.w3.org/2000/svg">
<path d="M98.9238 0C100.109 0.00013725 101.07 0.966174 101.07 2.15723V18.7832H96.7764V6.79004L36.4561 71H0.0664062V4.31348H0V0H98.9238ZM9.66113 67.04H10.0869L24.7139 4.31348H17.5371L9.66113 67.04ZM14.6357 67.04H15.124L37.4863 4.31348H29.2627L14.6357 67.04ZM19.6729 67.04H20.1973L50.8564 4.31348H42.0342L19.6729 67.04ZM24.7451 67.04H25.252L63.9268 4.31348H55.4043L24.7451 67.04ZM29.7998 67.04H30.3682L78.0449 4.31348H68.4756L29.7998 67.04ZM34.917 67.04H35.627L94.5547 4.31348H82.5938L34.917 67.04Z" fill="#013334"/>
</svg>
